<svg xmlns="http://www.w3.org/2000/svg" width="572.75" height="237.917"><path d="M314.594 46.358c-1.71 4.085-4.133 7.616-7.268 10.592-3.135 2.978-6.873 5.32-11.21 7.03-4.339 1.71-9.105 2.565-14.297 2.565h-23.085V.045h23.085c5.192 0 9.958.84 14.297 2.518 4.337 1.679 8.075 4.006 11.21 6.982 3.135 2.978 5.558 6.493 7.268 10.545 1.71 4.054 2.564 8.424 2.564 13.11 0 4.688-.854 9.073-2.564 13.158zm-7.173-23.322c-1.299-3.23-3.135-6.033-5.51-8.408s-5.272-4.242-8.692-5.605c-3.419-1.361-7.22-2.042-11.399-2.042h-15.58v52.63h15.58c4.18 0 7.98-.665 11.399-1.995 3.42-1.33 6.317-3.182 8.692-5.557s4.211-5.145 5.51-8.313c1.298-3.167 1.947-6.618 1.947-10.355 0-3.673-.649-7.125-1.947-10.355zm71.867 15.105c0 4.877-.665 9.152-1.995 12.825-1.33 3.674-3.215 6.745-5.652 9.215-2.439 2.47-5.353 4.323-8.74 5.558-3.389 1.235-7.173 1.853-11.353 1.853-4.117 0-7.87-.617-11.258-1.853-3.389-1.235-6.302-3.071-8.739-5.51-2.439-2.438-4.323-5.462-5.652-9.073-1.33-3.61-1.995-7.757-1.995-12.445V.046h7.505v38.19c0 7.22 1.788 12.763 5.367 16.625 3.577 3.864 8.564 5.795 14.963 5.795 6.142 0 11.02-1.836 14.63-5.51 3.609-3.672 5.415-9.151 5.415-16.435V.046h7.505v38.095zM290.32 143.305h-.38l-24.225-35.53v53.77H258.4v-66.5h7.6l24.225 36.29 24.225-36.29h7.601v66.5h-7.505V107.68l-24.226 35.625zm89.484-41.42H339.24v22.705h36.289v6.84H339.24v23.275h41.039v6.84h-48.545v-66.5h48.07v6.84zm35.343 59.661h-7.505v-59.565h-22.325v-6.935h52.155v6.935h-22.325v59.565zm36.923-66.5v66.5h-7.505v-66.5h7.505zm58.401 6.839h-40.565v22.705h36.29v6.84h-36.29v23.275h41.04v6.84H462.4v-66.5h48.07v6.84zm52.219 59.661l-19.284-25.84h-19v25.84H516.9v-66.5h28.596c3.672 0 6.982.477 9.927 1.426 2.945.95 5.463 2.296 7.553 4.039s3.705 3.834 4.845 6.273c1.141 2.44 1.71 5.149 1.71 8.127 0 2.788-.443 5.275-1.33 7.46-.888 2.187-2.137 4.088-3.752 5.703-1.615 1.617-3.531 2.963-5.748 4.041s-4.623 1.837-7.22 2.28l20.425 27.151h-9.216zm-5.141-56.086c-2.983-2.319-7.174-3.479-12.571-3.479h-20.571v27.075h20.477c2.476 0 4.76-.317 6.856-.953 2.096-.635 3.905-1.542 5.43-2.718a12.462 12.462 0 0 0 3.571-4.337c.856-1.716 1.285-3.655 1.285-5.816-.001-4.195-1.494-7.452-4.477-9.772zm-219.15-14.518l-1.059-7.012 24.065-3.633 1.059 7.012-24.065 3.633zm106.148-9.109h7.516v8h-7.516zM272.82 202.783a4.525 4.525 0 0 1-1.273 1.54 5.555 5.555 0 0 1-1.872.932c-.714.207-1.47.31-2.269.31h-3.638v5.286h-1.69v-14.98h5.607c.841 0 1.608.111 2.3.332.692.222 1.284.535 1.776.941.492.407.87.906 1.134 1.498.264.593.396 1.26.396 2.001 0 .813-.158 1.527-.471 2.14zm-2.325-4.526c-.737-.549-1.713-.824-2.929-.824h-3.798v6.592h3.712c.615 0 1.177-.079 1.685-.235a3.919 3.919 0 0 0 1.309-.675 2.95 2.95 0 0 0 .837-1.049c.193-.406.29-.858.29-1.358-.001-1.085-.37-1.903-1.106-2.451zm20.472 12.593h-1.818l-1.755-3.959h-8.153l-1.776 3.959h-1.733l6.827-15.087h1.583l6.825 15.087zm-7.639-13.096l-3.424 7.64h6.826l-3.402-7.64zm23.047 13.096l-4.345-5.82h-4.279v5.82h-1.691v-14.98h6.441c.828 0 1.573.107 2.236.322.664.214 1.23.517 1.702.909.471.393.834.864 1.091 1.413.257.55.386 1.16.386 1.831 0 .628-.101 1.188-.3 1.681-.2.492-.481.921-.846 1.284a4.707 4.707 0 0 1-1.295.91 6.002 6.002 0 0 1-1.626.514l4.601 6.116h-2.075zm-1.158-12.634c-.672-.522-1.616-.784-2.832-.784h-4.634v6.1h4.612c.558 0 1.072-.072 1.545-.215a3.814 3.814 0 0 0 1.223-.612c.343-.265.611-.591.805-.978.192-.387.289-.823.289-1.31 0-.945-.336-1.678-1.008-2.201zm13.956 12.634h-1.691v-13.418h-5.028v-1.563h11.748v1.563h-5.028v13.418zm22.384 0h-1.819l-1.754-3.959h-8.154l-1.775 3.959h-1.733l6.826-15.087h1.584l6.825 15.087zm-7.64-13.096l-3.424 7.64h6.826l-3.402-7.64zm22.245 12.68c-1.02.448-2.165.673-3.435.673-1.184 0-2.243-.2-3.178-.6-.935-.398-1.733-.948-2.396-1.647s-1.17-1.52-1.52-2.461-.524-1.947-.524-3.018c0-1.027.182-2.012.546-2.953a7.747 7.747 0 0 1 1.53-2.482c.656-.713 1.444-1.28 2.364-1.701s1.944-.631 3.071-.631c.627 0 1.201.042 1.723.128a7.521 7.521 0 0 1 1.455.385c.449.172.87.382 1.263.632s.773.531 1.145.845l-1.091 1.284a7.686 7.686 0 0 0-.899-.695 5.98 5.98 0 0 0-1.017-.535 6.37 6.37 0 0 0-1.198-.353 7.476 7.476 0 0 0-1.444-.129c-.827 0-1.591.165-2.29.493a5.566 5.566 0 0 0-1.797 1.329 6.205 6.205 0 0 0-1.178 1.962 6.673 6.673 0 0 0-.428 2.39c0 .9.139 1.733.417 2.498s.675 1.426 1.188 1.982c.513.558 1.134.993 1.861 1.308s1.548.472 2.461.472c.856 0 1.662-.146 2.418-.44.757-.294 1.392-.648 1.905-1.063v-3.739h-4.559v-1.498h6.185v5.955c-.698.624-1.557 1.162-2.578 1.609zm19.357-13.023h-9.138v5.115h8.175v1.54h-8.175v5.243h9.244v1.541h-10.936v-14.98h10.829v1.541zm26.793 8.891c-.386.921-.932 1.716-1.638 2.387s-1.548 1.198-2.525 1.583c-.977.386-2.051.578-3.221.578h-5.2v-14.98h5.2c1.17 0 2.244.189 3.221.567.978.378 1.819.902 2.525 1.573s1.252 1.462 1.638 2.375a7.52 7.52 0 0 1 .577 2.953 7.61 7.61 0 0 1-.577 2.964zm-1.617-5.253c-.292-.728-.706-1.359-1.241-1.895s-1.188-.955-1.958-1.263c-.771-.307-1.626-.46-2.568-.46h-3.509v11.855h3.509c.942 0 1.798-.149 2.568-.449s1.423-.717 1.958-1.252.949-1.159 1.241-1.872a6.102 6.102 0 0 0 .438-2.333 6.183 6.183 0 0 0-.438-2.331zm8.036-1.808c.228-.292.321-.667.278-1.124h-.771v-2.247h1.969v1.927c0 .87-.192 1.53-.578 1.979-.385.449-.984.767-1.797.952l-.257-.749c.543-.2.928-.446 1.156-.738zm9.095-3.371v14.98h-1.69v-14.98h1.69zm17.547 0h1.647v14.98h-1.348L426 198.567v12.283h-1.648v-14.98h1.584l9.438 12.006V195.87zm19.046 0h1.647v14.98h-1.348l-9.673-12.283v12.283h-1.648v-14.98h1.584l9.438 12.006V195.87zm22.085 10.432a7.73 7.73 0 0 1-1.563 2.472 7.451 7.451 0 0 1-2.418 1.702c-.941.42-1.983.631-3.125.631s-2.179-.207-3.113-.621a7.4 7.4 0 0 1-2.407-1.68 7.461 7.461 0 0 1-1.552-2.461 8.09 8.09 0 0 1-.546-2.964c0-1.041.186-2.029.557-2.964s.892-1.758 1.563-2.472c.67-.713 1.477-1.28 2.418-1.701s1.982-.631 3.124-.631 2.18.206 3.114.62a7.437 7.437 0 0 1 2.407 1.68 7.488 7.488 0 0 1 1.552 2.461c.363.935.545 1.923.545 2.964a7.967 7.967 0 0 1-.556 2.964zm-1.638-5.338a5.935 5.935 0 0 0-1.23-1.969 5.937 5.937 0 0 0-1.872-1.327 5.643 5.643 0 0 0-2.365-.492c-.855 0-1.645.161-2.364.481-.721.321-1.338.76-1.852 1.316s-.916 1.209-1.209 1.958a6.57 6.57 0 0 0-.438 2.407c0 .856.146 1.662.438 2.419a5.968 5.968 0 0 0 1.23 1.969 5.954 5.954 0 0 0 1.873 1.326c.72.328 1.509.492 2.364.492.856 0 1.645-.16 2.365-.481.72-.32 1.337-.76 1.851-1.315a6.15 6.15 0 0 0 1.209-1.959 6.546 6.546 0 0 0 .439-2.407 6.607 6.607 0 0 0-.439-2.418zm18.309-5.094h1.819l-6.441 15.088h-1.498l-6.441-15.088h1.883l5.329 12.904 5.349-12.904zm18.724 14.98h-1.819l-1.754-3.959h-8.154l-1.775 3.959h-1.733l6.826-15.087h1.584l6.825 15.087zm-7.639-13.096l-3.424 7.64h6.826l-3.402-7.64zm16.457 13.096h-1.691v-13.418h-5.028v-1.563h11.748v1.563h-5.028v13.418zm12.197-14.98v14.98h-1.69v-14.98h1.69zm20.587 10.432a7.747 7.747 0 0 1-1.563 2.472 7.451 7.451 0 0 1-2.418 1.702c-.941.42-1.983.631-3.125.631s-2.179-.207-3.113-.621a7.4 7.4 0 0 1-2.407-1.68 7.461 7.461 0 0 1-1.552-2.461 8.09 8.09 0 0 1-.546-2.964c0-1.041.186-2.029.557-2.964s.892-1.758 1.563-2.472c.67-.713 1.477-1.28 2.418-1.701s1.982-.631 3.124-.631 2.18.206 3.114.62a7.437 7.437 0 0 1 2.407 1.68 7.488 7.488 0 0 1 1.552 2.461c.363.935.545 1.923.545 2.964a7.967 7.967 0 0 1-.556 2.964zm-1.638-5.338a5.935 5.935 0 0 0-1.23-1.969 5.937 5.937 0 0 0-1.872-1.327 5.643 5.643 0 0 0-2.365-.492c-.855 0-1.645.161-2.364.481-.721.321-1.338.76-1.852 1.316s-.916 1.209-1.209 1.958a6.57 6.57 0 0 0-.438 2.407c0 .856.146 1.662.438 2.419a5.968 5.968 0 0 0 1.23 1.969 5.954 5.954 0 0 0 1.873 1.326c.72.328 1.509.492 2.364.492.856 0 1.645-.16 2.365-.481.72-.32 1.337-.76 1.851-1.315a6.15 6.15 0 0 0 1.209-1.959 6.546 6.546 0 0 0 .439-2.407 6.607 6.607 0 0 0-.439-2.418zm18.929-5.094h1.647v14.98h-1.348l-9.673-12.283v12.283h-1.648v-14.98h1.584l9.438 12.006V195.87zm-297.651 31.262a4.678 4.678 0 0 1-1.295 1.648 5.626 5.626 0 0 1-1.926.994 8.14 8.14 0 0 1-2.365.332h-2.504v4.494h-3.296v-14.98h6.121c.899 0 1.701.126 2.408.375.706.25 1.305.603 1.797 1.06.492.456.87 1.002 1.134 1.637.264.635.396 1.338.396 2.108v.042c.001.871-.156 1.633-.47 2.29zm-2.868-2.269c0-.741-.239-1.305-.717-1.69s-1.13-.578-1.958-.578h-2.546v4.58h2.611c.827 0 1.469-.218 1.926-.652.457-.436.685-.974.685-1.616v-.044zm23.005 5.254a7.744 7.744 0 0 1-1.658 2.461 7.724 7.724 0 0 1-2.525 1.669c-.978.407-2.044.61-3.199.61-1.156 0-2.219-.203-3.189-.61a7.913 7.913 0 0 1-2.514-1.647 7.348 7.348 0 0 1-1.648-2.439 7.678 7.678 0 0 1-.588-3.007v-.043c0-1.069.2-2.072.599-3.007a7.741 7.741 0 0 1 1.659-2.461c.706-.706 1.548-1.263 2.525-1.669s2.044-.609 3.199-.609c1.156 0 2.218.203 3.189.609a7.93 7.93 0 0 1 2.514 1.647c.707.692 1.256 1.506 1.648 2.44s.589 1.937.589 3.006v.043a7.58 7.58 0 0 1-.601 3.007zm-2.846-3.007c0-.642-.111-1.248-.332-1.818a4.528 4.528 0 0 0-.942-1.498 4.511 4.511 0 0 0-1.444-1.017 4.386 4.386 0 0 0-1.819-.375c-.671 0-1.281.122-1.83.364a4.156 4.156 0 0 0-1.413 1.006c-.393.428-.699.924-.92 1.487s-.332 1.166-.332 1.808v.043c0 .643.11 1.249.332 1.819s.535 1.07.942 1.498c.406.428.884.767 1.434 1.017s1.159.374 1.83.374a4.51 4.51 0 0 0 1.819-.363 4.175 4.175 0 0 0 1.423-1.006 4.76 4.76 0 0 0 .92-1.487 4.91 4.91 0 0 0 .332-1.809v-.043zm21.303 3.938c-.307.843-.746 1.545-1.316 2.108s-1.263.984-2.075 1.263c-.813.278-1.72.417-2.718.417-2.012 0-3.596-.557-4.751-1.669-1.156-1.113-1.733-2.774-1.733-4.986v-8.561h3.295v8.475c0 1.228.285 2.151.856 2.771.57.621 1.362.931 2.375.931s1.805-.299 2.376-.898c.57-.6.855-1.498.855-2.696v-8.582h3.296v8.453c0 1.141-.153 2.133-.46 2.974zm15.484 3.552l-3.21-4.794h-2.59v4.794h-3.295v-14.98h6.848c1.783 0 3.171.436 4.162 1.306.992.87 1.487 2.083 1.487 3.639v.042c0 1.213-.296 2.201-.888 2.964-.593.764-1.366 1.324-2.322 1.681l3.659 5.35h-3.851zm.064-9.865c0-.714-.229-1.248-.685-1.605-.457-.356-1.092-.535-1.905-.535h-3.274v4.302h3.339c.813 0 1.438-.192 1.872-.578.436-.385.653-.898.653-1.54v-.044zm25.551 9.973h-2.911l-6.056-15.088h3.638l3.916 10.551 3.917-10.551h3.552l-6.056 15.088zm25.595-4.591c-.4.935-.953 1.755-1.659 2.461s-1.548 1.263-2.525 1.669c-.977.407-2.043.61-3.199.61-1.155 0-2.218-.203-3.188-.61a7.929 7.929 0 0 1-2.515-1.647c-.706-.691-1.255-1.505-1.647-2.439s-.589-1.937-.589-3.007v-.043c0-1.069.2-2.072.6-3.007.399-.934.952-1.755 1.658-2.461s1.548-1.263 2.525-1.669 2.044-.609 3.199-.609c1.156 0 2.219.203 3.188.609a7.923 7.923 0 0 1 2.515 1.647 7.378 7.378 0 0 1 1.648 2.44c.392.935.588 1.937.588 3.006v.043a7.614 7.614 0 0 1-.599 3.007zm-2.847-3.007c0-.642-.11-1.248-.332-1.818a4.51 4.51 0 0 0-.941-1.498c-.406-.429-.888-.767-1.444-1.017s-1.163-.375-1.819-.375c-.67 0-1.28.122-1.829.364a4.156 4.156 0 0 0-1.413 1.006c-.393.428-.699.924-.92 1.487s-.331 1.166-.331 1.808v.043c0 .643.11 1.249.331 1.819s.535 1.07.941 1.498c.407.428.885.767 1.435 1.017a4.36 4.36 0 0 0 1.829.374 4.51 4.51 0 0 0 1.819-.363 4.165 4.165 0 0 0 1.423-1.006c.393-.429.699-.924.92-1.487a4.89 4.89 0 0 0 .332-1.809v-.043zm15.729-4.451V234.6h-3.295v-11.941h-4.559v-3.039h12.412v3.039h-4.558zm18.746 11.941l-3.21-4.794h-2.59v4.794h-3.295v-14.98h6.848c1.783 0 3.171.436 4.162 1.306.992.87 1.487 2.083 1.487 3.639v.042c0 1.213-.296 2.201-.888 2.964-.593.764-1.366 1.324-2.322 1.681l3.659 5.35h-3.851zm.064-9.865c0-.714-.229-1.248-.685-1.605-.457-.356-1.092-.535-1.905-.535h-3.274v4.302h3.339c.813 0 1.438-.192 1.872-.578.436-.385.653-.898.653-1.54v-.044zm8.881 9.865v-14.98h11.277v2.933h-8.024v3.038h7.062v2.933h-7.062v3.146h8.132v2.932h-11.385zm37.043 0l-1.37-3.359h-6.334l-1.37 3.359h-3.359l6.42-15.087h3.039l6.42 15.087h-3.446zm-4.537-11.128l-1.99 4.857h3.98l-1.99-4.857zm24.824 9.823a7.001 7.001 0 0 1-2.974 1.381 9.753 9.753 0 0 1-1.969.182c-1.099 0-2.118-.2-3.06-.6a7.481 7.481 0 0 1-2.439-1.637 7.427 7.427 0 0 1-1.605-2.45 7.892 7.892 0 0 1-.578-3.018v-.043c0-1.069.193-2.072.578-3.007a7.743 7.743 0 0 1 1.605-2.461 7.435 7.435 0 0 1 2.461-1.669c.955-.406 2.012-.609 3.167-.609.698 0 1.337.057 1.915.171s1.103.271 1.573.471c.471.2.905.442 1.306.728.398.285.77.6 1.112.941l-2.097 2.418a8.022 8.022 0 0 0-1.787-1.241c-.606-.299-1.288-.449-2.044-.449-.628 0-1.209.122-1.744.364s-.995.577-1.38 1.006c-.386.428-.686.924-.899 1.487s-.32 1.166-.32 1.808v.043c0 .643.106 1.249.32 1.819s.51 1.07.889 1.498a4.12 4.12 0 0 0 3.135 1.391c.856 0 1.58-.156 2.172-.471a8.377 8.377 0 0 0 1.766-1.284l2.098 2.119c-.387.413-.787.783-1.201 1.112zm13.182-10.636V234.6h-3.295v-11.941h-4.559v-3.039h12.412v3.039h-4.558zm9.801 11.941v-14.98h3.296v14.98h-3.296zm17.291.108h-2.911l-6.056-15.088h3.638l3.916 10.551 3.917-10.551h3.552l-6.056 15.088zm11.085-.108v-14.98h3.296v14.98h-3.296zm16.393-11.941V234.6h-3.295v-11.941h-4.559v-3.039h12.412v3.039h-4.558zm9.651 11.941v-14.98h11.277v2.933h-8.024v3.038h7.062v2.933h-7.062v3.146h8.132v2.932h-11.385zm3.852-16.157l2.418-3.787 2.804 1.22-2.739 2.567h-2.483zM20.755 132.171c-3.698-1.576-6.903-3.772-9.615-6.583-2.713-2.81-4.833-6.162-6.36-10.058-1.53-3.895-2.292-8.159-2.292-12.795 0-6.705 1.158-12.943 3.476-18.712 2.316-5.769 5.447-10.772 9.393-15.014 3.943-4.239 8.48-7.567 13.608-9.984 5.126-2.416 10.502-3.624 16.124-3.624 4.239 0 8.011.591 11.315 1.775 3.303 1.183 6.162 2.762 8.58 4.733a29.924 29.924 0 0 1 6.139 6.804c1.675 2.565 3.007 5.177 3.994 7.84L89.02 24.634h7.248l-28.844 107.98h-7.248l3.846-14.644c-3.749 4.537-8.209 8.432-13.387 11.686-5.177 3.254-11.12 4.881-17.824 4.881-4.34.001-8.357-.79-12.056-2.366zm26.774-7.897a44.618 44.618 0 0 0 12.056-8.688c3.55-3.582 6.409-7.731 8.579-12.443 2.168-4.71 3.254-9.571 3.254-14.577 0-3.633-.617-7.044-1.849-10.234-1.234-3.189-3.009-5.963-5.325-8.321-2.318-2.355-5.08-4.22-8.283-5.595-3.206-1.373-6.73-2.062-10.576-2.062-5.129 0-9.837 1.082-14.126 3.24s-7.988 5.055-11.094 8.688c-3.106 3.633-5.524 7.828-7.248 12.589-1.727 4.761-2.589 9.744-2.589 14.946 0 3.828.566 7.338 1.701 10.528 1.132 3.192 2.736 5.917 4.808 8.172a21.302 21.302 0 0 0 7.396 5.228c2.859 1.228 6.014 1.84 9.467 1.84 4.732.001 9.341-1.102 13.829-3.311zm11.036 15.402h7.248l-3.698 14.053a89.048 89.048 0 0 1 5.695-6.287 40.98 40.98 0 0 1 6.064-5.029 26.73 26.73 0 0 1 6.952-3.328c2.515-.788 5.3-1.183 8.357-1.183 3.351 0 6.335.542 8.949 1.626 2.611 1.087 4.807 2.492 6.582 4.217a21.17 21.17 0 0 1 4.29 5.916c1.084 2.219 1.823 4.463 2.219 6.73 3.451-5.621 7.814-10.107 13.091-13.461 5.274-3.352 11.463-5.029 18.563-5.029 3.352 0 6.483.591 9.393 1.775 2.907 1.184 5.411 2.836 7.509 4.955 2.096 2.122 3.749 4.637 4.955 7.544 1.207 2.909 1.81 6.139 1.81 9.688 0 1.678-.201 3.428-.603 5.252a94.61 94.61 0 0 1-1.357 5.398l-11.353 42.601h-7.248l11.538-43.192c.393-1.38.689-2.933.888-4.659.196-1.724.296-3.277.296-4.659 0-5.621-1.604-10.059-4.808-13.313-3.206-3.255-7.569-4.882-13.091-4.882-3.058 0-6.139.716-9.245 2.145-3.106 1.431-6.016 3.402-8.728 5.917-2.713 2.515-5.128 5.473-7.248 8.875-2.122 3.402-3.723 7.125-4.807 11.168l-11.242 42.601h-7.248l11.538-43.192c.393-1.38.688-2.933.887-4.659.197-1.724.296-3.277.296-4.659 0-5.621-1.604-10.059-4.807-13.313-3.206-3.255-7.569-4.882-13.091-4.882-3.058 0-6.139.716-9.245 2.145-3.106 1.431-6.016 3.402-8.727 5.917-2.713 2.515-5.128 5.473-7.248 8.875-2.122 3.402-3.723 7.125-4.807 11.168l-11.39 42.601h-7.248l20.119-75.44z" fill="#31404E"/><path fill="#31404E" d="M95.167 0l-1.875 6.125h121.041v225.667H6.25v-82.875H0v89h220.583V0z"/></svg>